<?xml version="1.0" encoding="UTF-8" standalone="no"?>
<!DOCTYPE svg PUBLIC "-//W3C//DTD SVG 1.1//EN" "http://www.w3.org/Graphics/SVG/1.1/DTD/svg11.dtd">
<svg width="100%" height="100%" viewBox="0 0 300 300" version="1.1" xmlns="http://www.w3.org/2000/svg" xmlns:xlink="http://www.w3.org/1999/xlink" xml:space="preserve" xmlns:serif="http://www.serif.com/" style="fill-rule:evenodd;clip-rule:evenodd;stroke-linecap:round;stroke-linejoin:round;stroke-miterlimit:1.5;">
    <path d="M94.224,194.585C94.224,194.585 153.484,269.842 219.134,194.585C233.935,177.617 240.639,141.98 241.155,128.881C242.07,105.673 208.664,11.913 157.401,11.191C103.211,10.428 81.728,92.153 79.061,120.217C74.667,166.455 70.036,178.282 0,207.884" style="fill:none;stroke:black;stroke-width:5.43px;"/>
    <g id="Layer1">
        <path d="M300,207.884C300,207.884 238.316,191.157 231.615,172.442" style="fill:none;stroke:black;stroke-width:5.43px;"/>
        <g transform="matrix(1,0,0,1,10.8592,4.49172)">
            <path d="M167.368,110.477C167.923,112.141 201.726,128.459 197.866,106.596C193.762,83.344 169.243,80.38 152.396,96.614C149.668,99.244 144.394,96.614 144.394,96.614" style="fill:none;stroke:black;stroke-width:5.43px;"/>
        </g>
        <g transform="matrix(-1,0,0,1,307.448,4.49172)">
            <path d="M167.368,110.477C167.923,112.141 201.726,128.459 197.866,106.596C193.762,83.344 169.243,80.38 152.396,96.614C149.668,99.244 144.394,96.614 144.394,96.614" style="fill:none;stroke:black;stroke-width:5.43px;"/>
        </g>
        <g transform="matrix(1,0,0,1,16.2569,7.26814)">
            <path d="M150,137.566C148.454,136.723 146.797,135.649 146.34,131.732C145.954,128.416 147.512,125.177 150,123.962C153.727,122.143 164.354,122.919 165.631,137.566C166.179,143.845 160.59,148.542 151.171,148.923" style="fill:none;stroke:black;stroke-width:5.43px;"/>
        </g>
        <g transform="matrix(-1.01636,0,0,1,304.543,7.26814)">
            <path d="M150,137.566C148.454,136.723 146.797,135.649 146.34,131.732C145.954,128.416 147.512,125.177 150,123.962C153.727,122.143 164.354,122.919 165.631,137.566C166.179,143.845 160.55,147.969 151.171,148.923C143.451,149.707 134.908,148.923 134.908,148.923" style="fill:none;stroke:black;stroke-width:5.38px;"/>
        </g>
        <g transform="matrix(1,0,0,1,14.4404,0)">
            <path d="M105.844,164.957C105.844,164.957 125.72,174.239 138.598,166.991C142.474,164.809 147.675,164.746 152.278,166.991" style="fill:none;stroke:black;stroke-width:5.43px;"/>
        </g>
        <g transform="matrix(-1,0,0,1,305.316,0)">
            <path d="M105.844,164.957C105.844,164.957 125.72,174.239 138.598,166.991C142.474,164.809 147.675,164.746 152.278,166.991" style="fill:none;stroke:black;stroke-width:5.43px;"/>
        </g>
        <path d="M136.484,111.973C135.589,109.736 133.577,107.765 131.168,107.247C128.925,106.764 126.709,108.587 127.018,110.924C127.272,112.839 130.012,115.27 132.043,114.774C133.086,114.519 133.739,113.582 134.163,112.659" style="fill:none;stroke:black;stroke-width:5.43px;"/>
        <g transform="matrix(1,0,0,1,9.22708,2.76731)">
            <path d="M174.457,110.908C173.52,108.367 172.378,103.087 176.338,102.26C176.818,102.16 177.276,102.194 177.752,102.31C178.366,102.46 178.963,102.769 179.485,103.119C180.296,103.662 181.04,104.306 181.714,105.012C182.679,106.023 183.54,107.21 184.128,108.483C184.419,109.111 184.787,109.857 184.684,110.574C184.177,114.118 178.62,115.411 176.184,113.14" style="fill:none;stroke:black;stroke-width:5.43px;"/>
        </g>
    </g>
</svg>
